<?xml version="1.0" encoding="UTF-8"?>
<svg xmlns="http://www.w3.org/2000/svg" width="2560" height="1440" viewBox="0 0 2560 1440" role="img" aria-label="기준시대 5083 마을별 인구 종족비 생업 시설 거리 도식">
<defs>
<style><![CDATA[
      text { font-family: "Malgun Gothic", "Noto Sans CJK KR", Arial, sans-serif; dominant-baseline: hanging; letter-spacing: 0; }
      .title { fill: #f4ecd7; font-size: 42px; font-weight: 800; }
      .subtitle { fill: #9aabc0; font-size: 20px; }
      .h { fill: #f4ecd7; font-size: 23px; font-weight: 800; }
      .label { fill: #f4ecd7; font-size: 16px; font-weight: 800; }
      .small { fill: #a8b6c8; font-size: 14px; }
      .tiny { fill: #95a8bd; font-size: 12.5px; }
      .micro { fill: #8fa1b4; font-size: 11px; }
      .gold { fill: #d7bd73; }
      .panel { fill: #0d1727; fill-opacity: .92; stroke: #293c55; stroke-width: 2; }
      .gridFrame { fill: #07101d; fill-opacity: .58; stroke: #55708c; stroke-width: 2; }
      .gridLine { stroke: #6f8aa6; stroke-width: 1; stroke-opacity: .22; }
      .gridMajor { stroke: #9fb3ca; stroke-width: 1.4; stroke-opacity: .42; }
      .routeRoad { stroke: #d7bd73; stroke-width: 3.2; stroke-opacity: .9; fill: none; stroke-linecap: round; stroke-linejoin: round; }
      .routeSea { stroke: #7fc0df; stroke-width: 3; stroke-opacity: .9; fill: none; stroke-linecap: round; stroke-linejoin: round; stroke-dasharray: 14 9; }
      .routeMountain { stroke: #c9d2dc; stroke-width: 2.7; stroke-opacity: .86; fill: none; stroke-linecap: round; stroke-linejoin: round; stroke-dasharray: 7 8; }
      .routeForest { stroke: #8fcf93; stroke-width: 2.7; stroke-opacity: .86; fill: none; stroke-linecap: round; stroke-linejoin: round; stroke-dasharray: 10 7; }
      .mapLabel { fill: #f4ecd7; font-size: 13px; font-weight: 800; paint-order: stroke; stroke: #07101d; stroke-width: 2px; }
      .routeLabel { fill: #f4ecd7; font-size: 12px; font-weight: 800; paint-order: stroke; stroke: #07101d; stroke-width: 1.8px; }
      .chipText { fill: #f4ecd7; font-size: 13px; font-weight: 800; }
      .tableHead { fill: #d7bd73; font-size: 13px; font-weight: 800; }
      .tableText { fill: #a8b6c8; font-size: 12.5px; }
      .tableStrong { fill: #f4ecd7; font-size: 12.5px; font-weight: 800; }
      .flowLine { stroke: #6f8aa6; stroke-width: 2; stroke-opacity: .55; fill: none; marker-end: url(#arrowSoft); }
      .barBack { fill: #142236; stroke: #2d3f56; stroke-width: 1.2; }
    ]]></style>
<radialGradient id="bg" cx="50%" cy="42%" r="74%"><stop offset="0%" stop-color="#142235"/><stop offset="100%" stop-color="#050913"/></radialGradient>
<marker id="arrowSoft" markerWidth="10" markerHeight="10" refX="8" refY="3" orient="auto"><path d="M0,0 L8,3 L0,6 Z" fill="#8fa1b4"/></marker>
</defs>
<rect width="2560" height="1440" fill="url(#bg)"/>
<circle cx="598" cy="130" r="0.7" fill="#8da6c2" opacity=".20"/>
<circle cx="1358" cy="259" r="0.7" fill="#8da6c2" opacity=".20"/>
<circle cx="1637" cy="265" r="0.7" fill="#8da6c2" opacity=".20"/>
<circle cx="871" cy="1423" r="1.3" fill="#8da6c2" opacity=".20"/>
<circle cx="2312" cy="294" r="0.7" fill="#8da6c2" opacity=".20"/>
<circle cx="794" cy="1197" r="0.7" fill="#8da6c2" opacity=".20"/>
<circle cx="825" cy="1339" r="0.7" fill="#8da6c2" opacity=".20"/>
<circle cx="495" cy="1037" r="0.7" fill="#8da6c2" opacity=".20"/>
<circle cx="1748" cy="205" r="0.7" fill="#8da6c2" opacity=".20"/>
<circle cx="332" cy="672" r="0.7" fill="#8da6c2" opacity=".20"/>
<circle cx="992" cy="797" r="0.7" fill="#8da6c2" opacity=".20"/>
<circle cx="2399" cy="1372" r="0.7" fill="#8da6c2" opacity=".20"/>
<circle cx="1146" cy="509" r="0.7" fill="#8da6c2" opacity=".20"/>
<circle cx="189" cy="685" r="0.7" fill="#8da6c2" opacity=".20"/>
<circle cx="416" cy="564" r="1.3" fill="#8da6c2" opacity=".20"/>
<circle cx="261" cy="805" r="1.3" fill="#8da6c2" opacity=".20"/>
<circle cx="1143" cy="504" r="0.7" fill="#8da6c2" opacity=".20"/>
<circle cx="223" cy="1289" r="0.7" fill="#8da6c2" opacity=".20"/>
<circle cx="1211" cy="1161" r="0.7" fill="#8da6c2" opacity=".20"/>
<circle cx="1551" cy="1143" r="0.7" fill="#8da6c2" opacity=".20"/>
<circle cx="1540" cy="970" r="0.7" fill="#8da6c2" opacity=".20"/>
<circle cx="655" cy="1034" r="0.7" fill="#8da6c2" opacity=".20"/>
<circle cx="156" cy="584" r="0.7" fill="#8da6c2" opacity=".20"/>
<circle cx="1347" cy="1090" r="0.7" fill="#8da6c2" opacity=".20"/>
<circle cx="1505" cy="608" r="0.7" fill="#8da6c2" opacity=".20"/>
<circle cx="2494" cy="342" r="0.7" fill="#8da6c2" opacity=".20"/>
<circle cx="1967" cy="1041" r="0.7" fill="#8da6c2" opacity=".20"/>
<circle cx="1529" cy="1095" r="0.7" fill="#8da6c2" opacity=".20"/>
<circle cx="586" cy="661" r="0.7" fill="#8da6c2" opacity=".20"/>
<circle cx="1248" cy="1047" r="0.7" fill="#8da6c2" opacity=".20"/>
<circle cx="1697" cy="870" r="0.7" fill="#8da6c2" opacity=".20"/>
<circle cx="105" cy="753" r="0.7" fill="#8da6c2" opacity=".20"/>
<circle cx="38" cy="944" r="0.7" fill="#8da6c2" opacity=".20"/>
<circle cx="1375" cy="15" r="0.7" fill="#8da6c2" opacity=".20"/>
<circle cx="1326" cy="1111" r="0.7" fill="#8da6c2" opacity=".20"/>
<circle cx="1505" cy="530" r="0.7" fill="#8da6c2" opacity=".20"/>
<circle cx="2007" cy="1121" r="0.7" fill="#8da6c2" opacity=".20"/>
<circle cx="252" cy="1018" r="0.7" fill="#8da6c2" opacity=".20"/>
<circle cx="852" cy="453" r="0.7" fill="#8da6c2" opacity=".20"/>
<circle cx="2055" cy="1220" r="0.7" fill="#8da6c2" opacity=".20"/>
<circle cx="2210" cy="1277" r="0.7" fill="#8da6c2" opacity=".20"/>
<circle cx="1139" cy="292" r="0.7" fill="#8da6c2" opacity=".20"/>
<circle cx="2043" cy="109" r="0.7" fill="#8da6c2" opacity=".20"/>
<circle cx="178" cy="647" r="0.7" fill="#8da6c2" opacity=".20"/>
<circle cx="575" cy="482" r="0.7" fill="#8da6c2" opacity=".20"/>
<circle cx="49" cy="944" r="0.7" fill="#8da6c2" opacity=".20"/>
<circle cx="2291" cy="261" r="0.7" fill="#8da6c2" opacity=".20"/>
<circle cx="2166" cy="486" r="0.7" fill="#8da6c2" opacity=".20"/>
<circle cx="1122" cy="1090" r="0.7" fill="#8da6c2" opacity=".20"/>
<circle cx="2178" cy="804" r="0.7" fill="#8da6c2" opacity=".20"/>
<circle cx="95" cy="275" r="0.7" fill="#8da6c2" opacity=".20"/>
<circle cx="131" cy="385" r="0.7" fill="#8da6c2" opacity=".20"/>
<circle cx="1245" cy="909" r="0.7" fill="#8da6c2" opacity=".20"/>
<circle cx="1279" cy="982" r="1.3" fill="#8da6c2" opacity=".20"/>
<circle cx="1115" cy="868" r="0.7" fill="#8da6c2" opacity=".20"/>
<circle cx="1763" cy="166" r="0.7" fill="#8da6c2" opacity=".20"/>
<circle cx="1845" cy="412" r="0.7" fill="#8da6c2" opacity=".20"/>
<circle cx="1957" cy="615" r="1.3" fill="#8da6c2" opacity=".20"/>
<circle cx="1542" cy="1009" r="0.7" fill="#8da6c2" opacity=".20"/>
<circle cx="183" cy="1002" r="1.3" fill="#8da6c2" opacity=".20"/>
<circle cx="1330" cy="659" r="0.7" fill="#8da6c2" opacity=".20"/>
<circle cx="1630" cy="1279" r="0.7" fill="#8da6c2" opacity=".20"/>
<circle cx="433" cy="1408" r="1.3" fill="#8da6c2" opacity=".20"/>
<circle cx="646" cy="1114" r="0.7" fill="#8da6c2" opacity=".20"/>
<circle cx="1116" cy="1097" r="0.7" fill="#8da6c2" opacity=".20"/>
<circle cx="609" cy="258" r="0.7" fill="#8da6c2" opacity=".20"/>
<circle cx="1134" cy="889" r="0.7" fill="#8da6c2" opacity=".20"/>
<circle cx="1343" cy="662" r="0.7" fill="#8da6c2" opacity=".20"/>
<circle cx="2273" cy="983" r="0.7" fill="#8da6c2" opacity=".20"/>
<circle cx="1840" cy="1169" r="0.7" fill="#8da6c2" opacity=".20"/>
<circle cx="933" cy="1107" r="0.7" fill="#8da6c2" opacity=".20"/>
<circle cx="246" cy="575" r="0.7" fill="#8da6c2" opacity=".20"/>
<circle cx="1751" cy="1358" r="0.7" fill="#8da6c2" opacity=".20"/>
<circle cx="931" cy="255" r="0.7" fill="#8da6c2" opacity=".20"/>
<circle cx="2051" cy="865" r="0.7" fill="#8da6c2" opacity=".20"/>
<circle cx="771" cy="626" r="0.7" fill="#8da6c2" opacity=".20"/>
<circle cx="2387" cy="523" r="0.7" fill="#8da6c2" opacity=".20"/>
<circle cx="964" cy="620" r="0.7" fill="#8da6c2" opacity=".20"/>
<circle cx="861" cy="533" r="0.7" fill="#8da6c2" opacity=".20"/>
<circle cx="2456" cy="945" r="1.3" fill="#8da6c2" opacity=".20"/>
<circle cx="342" cy="822" r="0.7" fill="#8da6c2" opacity=".20"/>
<circle cx="219" cy="452" r="0.7" fill="#8da6c2" opacity=".20"/>
<circle cx="2519" cy="1418" r="0.7" fill="#8da6c2" opacity=".20"/>
<circle cx="1886" cy="25" r="0.7" fill="#8da6c2" opacity=".20"/>
<circle cx="1268" cy="236" r="0.7" fill="#8da6c2" opacity=".20"/>
<circle cx="1414" cy="1055" r="0.7" fill="#8da6c2" opacity=".20"/>
<circle cx="1273" cy="1150" r="0.7" fill="#8da6c2" opacity=".20"/>
<circle cx="1591" cy="1346" r="0.7" fill="#8da6c2" opacity=".20"/>
<circle cx="1992" cy="282" r="0.7" fill="#8da6c2" opacity=".20"/>
<circle cx="2099" cy="161" r="0.7" fill="#8da6c2" opacity=".20"/>
<circle cx="499" cy="898" r="0.7" fill="#8da6c2" opacity=".20"/>
<circle cx="2244" cy="789" r="0.7" fill="#8da6c2" opacity=".20"/>
<circle cx="529" cy="124" r="0.7" fill="#8da6c2" opacity=".20"/>
<circle cx="714" cy="1221" r="0.7" fill="#8da6c2" opacity=".20"/>
<circle cx="1213" cy="273" r="0.7" fill="#8da6c2" opacity=".20"/>
<circle cx="180" cy="799" r="0.7" fill="#8da6c2" opacity=".20"/>
<circle cx="648" cy="455" r="0.7" fill="#8da6c2" opacity=".20"/>
<circle cx="2289" cy="557" r="0.7" fill="#8da6c2" opacity=".20"/>
<circle cx="1110" cy="782" r="0.7" fill="#8da6c2" opacity=".20"/>
<circle cx="136" cy="1156" r="0.7" fill="#8da6c2" opacity=".20"/>
<circle cx="854" cy="748" r="1.3" fill="#8da6c2" opacity=".20"/>
<circle cx="691" cy="1065" r="0.7" fill="#8da6c2" opacity=".20"/>
<circle cx="726" cy="155" r="0.7" fill="#8da6c2" opacity=".20"/>
<circle cx="2521" cy="65" r="0.7" fill="#8da6c2" opacity=".20"/>
<circle cx="1836" cy="1196" r="0.7" fill="#8da6c2" opacity=".20"/>
<circle cx="2028" cy="676" r="0.7" fill="#8da6c2" opacity=".20"/>
<circle cx="1158" cy="585" r="0.7" fill="#8da6c2" opacity=".20"/>
<circle cx="1977" cy="790" r="0.7" fill="#8da6c2" opacity=".20"/>
<circle cx="497" cy="855" r="0.7" fill="#8da6c2" opacity=".20"/>
<circle cx="836" cy="662" r="0.7" fill="#8da6c2" opacity=".20"/>
<circle cx="1472" cy="961" r="0.7" fill="#8da6c2" opacity=".20"/>
<circle cx="1355" cy="675" r="0.7" fill="#8da6c2" opacity=".20"/>
<circle cx="761" cy="1151" r="0.7" fill="#8da6c2" opacity=".20"/>
<circle cx="554" cy="1434" r="0.7" fill="#8da6c2" opacity=".20"/>
<circle cx="1991" cy="1148" r="0.7" fill="#8da6c2" opacity=".20"/>
<circle cx="2344" cy="224" r="0.7" fill="#8da6c2" opacity=".20"/>
<circle cx="333" cy="1224" r="0.7" fill="#8da6c2" opacity=".20"/>
<circle cx="1414" cy="1398" r="1.3" fill="#8da6c2" opacity=".20"/>
<circle cx="2385" cy="681" r="1.3" fill="#8da6c2" opacity=".20"/>
<circle cx="1187" cy="1192" r="0.7" fill="#8da6c2" opacity=".20"/>
<circle cx="234" cy="752" r="0.7" fill="#8da6c2" opacity=".20"/>
<circle cx="2459" cy="366" r="0.7" fill="#8da6c2" opacity=".20"/>
<circle cx="2040" cy="444" r="0.7" fill="#8da6c2" opacity=".20"/>
<circle cx="654" cy="396" r="0.7" fill="#8da6c2" opacity=".20"/>
<circle cx="117" cy="325" r="0.7" fill="#8da6c2" opacity=".20"/>
<circle cx="981" cy="753" r="0.7" fill="#8da6c2" opacity=".20"/>
<circle cx="602" cy="523" r="1.3" fill="#8da6c2" opacity=".20"/>
<circle cx="1431" cy="743" r="0.7" fill="#8da6c2" opacity=".20"/>
<circle cx="1893" cy="1336" r="1.3" fill="#8da6c2" opacity=".20"/>
<circle cx="1521" cy="143" r="0.7" fill="#8da6c2" opacity=".20"/>
<circle cx="2307" cy="643" r="0.7" fill="#8da6c2" opacity=".20"/>
<circle cx="713" cy="836" r="0.7" fill="#8da6c2" opacity=".20"/>
<circle cx="1293" cy="498" r="0.7" fill="#8da6c2" opacity=".20"/>
<circle cx="1098" cy="862" r="0.7" fill="#8da6c2" opacity=".20"/>
<circle cx="245" cy="1403" r="0.7" fill="#8da6c2" opacity=".20"/>
<circle cx="855" cy="1214" r="0.7" fill="#8da6c2" opacity=".20"/>
<circle cx="1416" cy="391" r="0.7" fill="#8da6c2" opacity=".20"/>
<circle cx="2465" cy="612" r="0.7" fill="#8da6c2" opacity=".20"/>
<circle cx="1783" cy="504" r="0.7" fill="#8da6c2" opacity=".20"/>
<circle cx="835" cy="822" r="0.7" fill="#8da6c2" opacity=".20"/>
<circle cx="1017" cy="191" r="0.7" fill="#8da6c2" opacity=".20"/>
<circle cx="328" cy="604" r="0.7" fill="#8da6c2" opacity=".20"/>
<circle cx="870" cy="160" r="0.7" fill="#8da6c2" opacity=".20"/>
<circle cx="249" cy="891" r="1.3" fill="#8da6c2" opacity=".20"/>
<circle cx="537" cy="221" r="0.7" fill="#8da6c2" opacity=".20"/>
<circle cx="1270" cy="292" r="0.7" fill="#8da6c2" opacity=".20"/>
<circle cx="705" cy="458" r="0.7" fill="#8da6c2" opacity=".20"/>
<circle cx="117" cy="626" r="1.3" fill="#8da6c2" opacity=".20"/>
<circle cx="403" cy="1043" r="0.7" fill="#8da6c2" opacity=".20"/>
<circle cx="550" cy="19" r="0.7" fill="#8da6c2" opacity=".20"/>
<circle cx="1446" cy="1342" r="0.7" fill="#8da6c2" opacity=".20"/>
<circle cx="784" cy="1151" r="0.7" fill="#8da6c2" opacity=".20"/>
<circle cx="19" cy="1210" r="1.3" fill="#8da6c2" opacity=".20"/>
<circle cx="852" cy="118" r="0.7" fill="#8da6c2" opacity=".20"/>
<circle cx="1406" cy="217" r="0.7" fill="#8da6c2" opacity=".20"/>
<circle cx="391" cy="1408" r="1.3" fill="#8da6c2" opacity=".20"/>
<circle cx="1427" cy="1023" r="0.7" fill="#8da6c2" opacity=".20"/>
<circle cx="2553" cy="1218" r="0.7" fill="#8da6c2" opacity=".20"/>
<circle cx="1926" cy="1368" r="0.7" fill="#8da6c2" opacity=".20"/>
<circle cx="604" cy="281" r="0.7" fill="#8da6c2" opacity=".20"/>
<circle cx="1750" cy="1308" r="0.7" fill="#8da6c2" opacity=".20"/>
<circle cx="653" cy="790" r="0.7" fill="#8da6c2" opacity=".20"/>
<circle cx="1655" cy="441" r="0.7" fill="#8da6c2" opacity=".20"/>
<circle cx="1304" cy="886" r="0.7" fill="#8da6c2" opacity=".20"/>
<circle cx="135" cy="966" r="0.7" fill="#8da6c2" opacity=".20"/>
<circle cx="1151" cy="20" r="1.3" fill="#8da6c2" opacity=".20"/>
<circle cx="2427" cy="1211" r="0.7" fill="#8da6c2" opacity=".20"/>
<circle cx="2463" cy="350" r="0.7" fill="#8da6c2" opacity=".20"/>
<circle cx="2039" cy="276" r="0.7" fill="#8da6c2" opacity=".20"/>
<circle cx="1120" cy="942" r="0.7" fill="#8da6c2" opacity=".20"/>
<circle cx="949" cy="1247" r="0.7" fill="#8da6c2" opacity=".20"/>
<circle cx="1306" cy="606" r="0.7" fill="#8da6c2" opacity=".20"/>
<circle cx="1781" cy="58" r="0.7" fill="#8da6c2" opacity=".20"/>
<circle cx="301" cy="0" r="0.7" fill="#8da6c2" opacity=".20"/>
<circle cx="2" cy="97" r="0.7" fill="#8da6c2" opacity=".20"/>
<circle cx="1682" cy="1211" r="0.7" fill="#8da6c2" opacity=".20"/>
<circle cx="1710" cy="67" r="0.7" fill="#8da6c2" opacity=".20"/>
<circle cx="15" cy="432" r="0.7" fill="#8da6c2" opacity=".20"/>
<circle cx="1850" cy="450" r="0.7" fill="#8da6c2" opacity=".20"/>
<circle cx="2013" cy="355" r="0.7" fill="#8da6c2" opacity=".20"/>
<circle cx="1562" cy="393" r="0.7" fill="#8da6c2" opacity=".20"/>
<circle cx="2134" cy="1429" r="0.7" fill="#8da6c2" opacity=".20"/>
<circle cx="933" cy="450" r="0.7" fill="#8da6c2" opacity=".20"/>
<circle cx="497" cy="352" r="0.7" fill="#8da6c2" opacity=".20"/>
<circle cx="2276" cy="1334" r="0.7" fill="#8da6c2" opacity=".20"/>
<circle cx="1057" cy="126" r="0.7" fill="#8da6c2" opacity=".20"/>
<circle cx="1237" cy="179" r="0.7" fill="#8da6c2" opacity=".20"/>
<circle cx="556" cy="1292" r="0.7" fill="#8da6c2" opacity=".20"/>
<circle cx="73" cy="470" r="0.7" fill="#8da6c2" opacity=".20"/>
<circle cx="633" cy="1103" r="0.7" fill="#8da6c2" opacity=".20"/>
<circle cx="2471" cy="1052" r="0.7" fill="#8da6c2" opacity=".20"/>
<circle cx="182" cy="33" r="0.7" fill="#8da6c2" opacity=".20"/>
<circle cx="997" cy="395" r="0.7" fill="#8da6c2" opacity=".20"/>
<circle cx="1593" cy="1054" r="0.7" fill="#8da6c2" opacity=".20"/>
<circle cx="2205" cy="256" r="0.7" fill="#8da6c2" opacity=".20"/>
<circle cx="658" cy="532" r="0.7" fill="#8da6c2" opacity=".20"/>
<circle cx="2281" cy="659" r="0.7" fill="#8da6c2" opacity=".20"/>
<circle cx="424" cy="180" r="0.7" fill="#8da6c2" opacity=".20"/>
<circle cx="328" cy="11" r="0.7" fill="#8da6c2" opacity=".20"/>
<circle cx="1640" cy="123" r="1.3" fill="#8da6c2" opacity=".20"/>
<circle cx="172" cy="1037" r="0.7" fill="#8da6c2" opacity=".20"/>
<circle cx="269" cy="48" r="0.7" fill="#8da6c2" opacity=".20"/>
<circle cx="516" cy="1391" r="0.7" fill="#8da6c2" opacity=".20"/>
<circle cx="1469" cy="231" r="0.7" fill="#8da6c2" opacity=".20"/>
<circle cx="22" cy="476" r="0.7" fill="#8da6c2" opacity=".20"/>
<circle cx="1818" cy="1306" r="0.7" fill="#8da6c2" opacity=".20"/>
<circle cx="1452" cy="332" r="0.7" fill="#8da6c2" opacity=".20"/>
<circle cx="1678" cy="1096" r="0.7" fill="#8da6c2" opacity=".20"/>
<circle cx="2516" cy="858" r="0.7" fill="#8da6c2" opacity=".20"/>
<circle cx="1675" cy="600" r="0.7" fill="#8da6c2" opacity=".20"/>
<circle cx="1937" cy="901" r="0.7" fill="#8da6c2" opacity=".20"/>
<circle cx="3" cy="902" r="0.7" fill="#8da6c2" opacity=".20"/>
<circle cx="2012" cy="624" r="0.7" fill="#8da6c2" opacity=".20"/>
<circle cx="719" cy="800" r="1.3" fill="#8da6c2" opacity=".20"/>
<circle cx="1121" cy="832" r="0.7" fill="#8da6c2" opacity=".20"/>
<circle cx="321" cy="1365" r="0.7" fill="#8da6c2" opacity=".20"/>
<circle cx="293" cy="1097" r="0.7" fill="#8da6c2" opacity=".20"/>
<circle cx="11" cy="46" r="1.3" fill="#8da6c2" opacity=".20"/>
<circle cx="1334" cy="1124" r="0.7" fill="#8da6c2" opacity=".20"/>
<circle cx="2047" cy="595" r="0.7" fill="#8da6c2" opacity=".20"/>
<text x="58" y="42" class="title" >마을별 인구·종족비·생업·시설·거리 DB</text>
<text x="58" y="96" class="subtitle" >마을 유형별 규모, 생업, 시설, 가까운 도시와 연결축을 비교한 기준표</text>
<rect x="50" y="145" width="520" height="1000" rx="12" class="panel"/>
<text x="70" y="163" class="h" >비교 항목</text>
<text x="70" y="197" class="tiny gold" >마을과 구조물의 지도 배치 기준</text>
<text x="82" y="225" class="label" >인구 규모</text>
<text x="82" y="275" class="label" >종족비</text>
<text x="82" y="325" class="label" >생업</text>
<text x="82" y="375" class="label" >시설</text>
<text x="82" y="425" class="label" >가까운 도시</text>
<text x="82" y="475" class="label" >거리</text>
<text x="82" y="525" class="label" >길 소속</text>
<text x="82" y="575" class="label" >하천 소속</text>
<text x="82" y="625" class="label" >국경 소속</text>
<rect x="600" y="145" width="1908" height="1000" rx="12" class="panel"/>
<text x="620" y="163" class="h" >마을 유형 비교</text>
<text x="620" y="197" class="tiny gold" >상주 인구와 기능 중심</text>
<text x="630" y="225" class="tableHead" >마을 유형</text>
<text x="820" y="225" class="tableHead" >인구 규모</text>
<text x="1010" y="225" class="tableHead" >종족비</text>
<text x="1210" y="225" class="tableHead" >생업</text>
<text x="1510" y="225" class="tableHead" >시설</text>
<text x="1810" y="225" class="tableHead" >가까운 도시·거리</text>
<text x="2070" y="225" class="tableHead" >소속축</text>
<rect x="620" y="260" width="1858" height="70" rx="8" fill="#0f1a2b" stroke="#24364c" stroke-width="1"/>
<text x="630" y="270" class="tableStrong" >봉토 마을</text>
<text x="820" y="270" class="tableText" >구백~이천</text>
<text x="1010" y="270" class="tableText" >인간계 우세</text>
<text x="1210" y="270" class="tableText" >곡물·하인·봉토 장부</text>
<text x="1510" y="270" class="tableText" >곡물 창고·영지 서리실</text>
<text x="1810" y="270" class="tableText" >라드아르할 한 격자</text>
<text x="2070" y="270" class="tableText" >라드지르켈</text>
<rect x="820" y="301" width="180" height="10" rx="5" class="barBack"/>
<rect x="820" y="301" width="180" height="10" rx="5" fill="#d7bd73" fill-opacity=".75"/>
<rect x="620" y="346" width="1858" height="70" rx="8" fill="#101b2d" stroke="#24364c" stroke-width="1"/>
<text x="630" y="356" class="tableStrong" >산길 숙소촌</text>
<text x="820" y="356" class="tableText" >삼백~팔백</text>
<text x="1010" y="356" class="tableText" >인간계·북방 복합</text>
<text x="1210" y="356" class="tableText" >고개 숙박·눈길 안내</text>
<text x="1510" y="356" class="tableText" >산길 숙소·표식소</text>
<text x="1810" y="356" class="tableText" >헤스켈카르 한 격자</text>
<text x="2070" y="356" class="tableText" >헤스푸크켈</text>
<rect x="820" y="387" width="180" height="10" rx="5" class="barBack"/>
<rect x="820" y="387" width="163.8" height="10" rx="5" fill="#d7bd73" fill-opacity=".75"/>
<rect x="620" y="432" width="1858" height="70" rx="8" fill="#0f1a2b" stroke="#24364c" stroke-width="1"/>
<text x="630" y="442" class="tableStrong" >영지 장터촌</text>
<text x="820" y="442" class="tableText" >육백~이천</text>
<text x="1010" y="442" class="tableText" >인간계·씨앗상단계</text>
<text x="1210" y="442" class="tableText" >방앗간·곡물 저장</text>
<text x="1510" y="442" class="tableText" >저장고·수레 수리막</text>
<text x="1810" y="442" class="tableText" >가르메브에트 한 격자</text>
<text x="2070" y="442" class="tableText" >가르벨켈</text>
<rect x="820" y="473" width="180" height="10" rx="5" class="barBack"/>
<rect x="820" y="473" width="180" height="10" rx="5" fill="#d7bd73" fill-opacity=".75"/>
<rect x="620" y="518" width="1858" height="70" rx="8" fill="#101b2d" stroke="#24364c" stroke-width="1"/>
<text x="630" y="528" class="tableStrong" >계절 야영지</text>
<text x="820" y="528" class="tableText" >이백~육백</text>
<text x="1010" y="528" class="tableText" >유동 인구 큼</text>
<text x="1210" y="528" class="tableText" >가축 교역·통역 장터</text>
<text x="1510" y="528" class="tableText" >천막장·이동 장부소</text>
<text x="1810" y="528" class="tableText" >틱메브할 안쪽</text>
<text x="2070" y="528" class="tableText" >틱메브켈</text>
<rect x="820" y="559" width="180" height="10" rx="5" class="barBack"/>
<rect x="820" y="559" width="121.80000000000001" height="10" rx="5" fill="#d7bd73" fill-opacity=".75"/>
<rect x="620" y="604" width="1858" height="70" rx="8" fill="#0f1a2b" stroke="#24364c" stroke-width="1"/>
<text x="630" y="614" class="tableStrong" >수문 마을</text>
<text x="820" y="614" class="tableText" >칠백~천삼백</text>
<text x="1010" y="614" class="tableText" >인간계·씨앗상단계</text>
<text x="1210" y="614" class="tableText" >수문 관리·나루</text>
<text x="1510" y="614" class="tableText" >수문·물맛 기록판</text>
<text x="1810" y="614" class="tableText" >벨소르엘 한 격자</text>
<text x="2070" y="614" class="tableText" >하천 소속</text>
<rect x="820" y="645" width="180" height="10" rx="5" class="barBack"/>
<rect x="820" y="645" width="180" height="10" rx="5" fill="#d7bd73" fill-opacity=".75"/>
<rect x="620" y="690" width="1858" height="70" rx="8" fill="#101b2d" stroke="#24364c" stroke-width="1"/>
<text x="630" y="700" class="tableStrong" >피난 표식촌</text>
<text x="820" y="700" class="tableText" >이백~천육백</text>
<text x="1010" y="700" class="tableText" >혼합 거주 증가</text>
<text x="1210" y="700" class="tableText" >피난 대기·보증인 알선</text>
<text x="1510" y="700" class="tableText" >피난 명부소·표식대</text>
<text x="1810" y="700" class="tableText" >베크켈카르 한 격자</text>
<text x="2070" y="700" class="tableText" >국경 소속</text>
<rect x="820" y="731" width="180" height="10" rx="5" class="barBack"/>
<rect x="820" y="731" width="88.2" height="10" rx="5" fill="#d7bd73" fill-opacity=".75"/>
<rect x="620" y="776" width="1858" height="70" rx="8" fill="#0f1a2b" stroke="#24364c" stroke-width="1"/>
<text x="630" y="786" class="tableStrong" >해안 어항</text>
<text x="820" y="786" class="tableText" >백이십~칠백</text>
<text x="1010" y="786" class="tableText" >외해 해양 비중</text>
<text x="1210" y="786" class="tableText" >어업·등대·난파 감시</text>
<text x="1510" y="786" class="tableText" >등대·어장 창고</text>
<text x="1810" y="786" class="tableText" >아르마르토르 인근</text>
<text x="2070" y="786" class="tableText" >항로 소속</text>
<rect x="820" y="817" width="180" height="10" rx="5" class="barBack"/>
<rect x="820" y="817" width="134.4" height="10" rx="5" fill="#d7bd73" fill-opacity=".75"/>
<rect x="620" y="862" width="1858" height="70" rx="8" fill="#101b2d" stroke="#24364c" stroke-width="1"/>
<text x="630" y="872" class="tableStrong" >감시 초소촌</text>
<text x="820" y="872" class="tableText" >백~오백</text>
<text x="1010" y="872" class="tableText" >혼합·전문 인력</text>
<text x="1210" y="872" class="tableText" >허가 심사·감시</text>
<text x="1510" y="872" class="tableText" >초소·보관막·숙소</text>
<text x="1810" y="872" class="tableText" >얄베크움 안쪽</text>
<text x="2070" y="872" class="tableText" >국경 소속</text>
<rect x="820" y="903" width="180" height="10" rx="5" class="barBack"/>
<rect x="820" y="903" width="79.8" height="10" rx="5" fill="#d7bd73" fill-opacity=".75"/>
<rect x="50" y="1180" width="2458" height="170" rx="12" class="panel"/>
<text x="70" y="1198" class="h" >거리와 소속축</text>
<text x="70" y="1232" class="tiny gold" >가까운 도시에서 한 격자 안팎의 배후 정착지가 많고, 수문·항로·국경 소속은 이동 제한과 시설 배치를 함께 결정한다.</text>
<text x="82" y="1245" class="small" >길 소속: 라드지르켈, 헤스푸크켈, 가르벨켈, 틱메브켈처럼 가도·이동로와 직접 연결된다.</text>
<text x="82" y="1276" class="small" >하천 소속: 수문 마을과 내해 나루 마을은 물길, 둑, 나루, 수문 부품창고가 기준 시설이다.</text>
<text x="82" y="1307" class="small" >국경 소속: 피난 표식촌과 감시 초소촌은 보증인, 통행문, 허가 심사, 물품 보관이 생활 표면을 만든다.</text>
</svg>
